<mxfile host="app.diagrams.net" agent="Mozilla/5.0 (Windows NT 10.0; Win64; x64) AppleWebKit/537.36 (KHTML, like Gecko) Chrome/139.0.0.0 Safari/537.36" version="28.2.1">
  <diagram name="ページ1" id="-yQxtWkkD7UiSTY75yKF">
    <mxGraphModel dx="1426" dy="777" grid="1" gridSize="10" guides="1" tooltips="1" connect="1" arrows="1" fold="1" page="1" pageScale="1" pageWidth="827" pageHeight="1169" math="0" shadow="0">
      <root>
        <mxCell id="0" />
        <mxCell id="1" parent="0" />
        <mxCell id="bWEQ8Hk4IMPaYB9mHfkw-1" value="Actor" style="shape=umlActor;verticalLabelPosition=bottom;verticalAlign=top;html=1;outlineConnect=0;" vertex="1" parent="1">
          <mxGeometry x="160" y="280" width="40" height="80" as="geometry" />
        </mxCell>
        <mxCell id="bWEQ8Hk4IMPaYB9mHfkw-17" value="表示（する）" style="ellipse;shape=umlControl;whiteSpace=wrap;html=1;" vertex="1" parent="1">
          <mxGeometry x="520" y="240" width="90" height="100" as="geometry" />
        </mxCell>
        <mxCell id="bWEQ8Hk4IMPaYB9mHfkw-18" value="学生登録画面" style="shape=umlBoundary;whiteSpace=wrap;html=1;" vertex="1" parent="1">
          <mxGeometry x="320" y="440" width="100" height="80" as="geometry" />
        </mxCell>
        <mxCell id="bWEQ8Hk4IMPaYB9mHfkw-19" value="メニュー画面" style="shape=umlBoundary;whiteSpace=wrap;html=1;" vertex="1" parent="1">
          <mxGeometry x="320" y="120" width="100" height="80" as="geometry" />
        </mxCell>
        <mxCell id="bWEQ8Hk4IMPaYB9mHfkw-20" value="学生情報登録" style="ellipse;shape=umlControl;whiteSpace=wrap;html=1;" vertex="1" parent="1">
          <mxGeometry x="520" y="480" width="90" height="100" as="geometry" />
        </mxCell>
        <mxCell id="bWEQ8Hk4IMPaYB9mHfkw-22" value="学生オブジェクト（データ）" style="ellipse;shape=umlEntity;whiteSpace=wrap;html=1;" vertex="1" parent="1">
          <mxGeometry x="760" y="480" width="90" height="90" as="geometry" />
        </mxCell>
        <mxCell id="bWEQ8Hk4IMPaYB9mHfkw-24" value="" style="endArrow=classic;html=1;rounded=0;exitX=1;exitY=0.3333333333333333;exitDx=0;exitDy=0;exitPerimeter=0;entryX=-0.04;entryY=0.588;entryDx=0;entryDy=0;entryPerimeter=0;" edge="1" parent="1" source="bWEQ8Hk4IMPaYB9mHfkw-1" target="bWEQ8Hk4IMPaYB9mHfkw-19">
          <mxGeometry width="50" height="50" relative="1" as="geometry">
            <mxPoint x="390" y="650" as="sourcePoint" />
            <mxPoint x="440" y="600" as="targetPoint" />
          </mxGeometry>
        </mxCell>
        <mxCell id="bWEQ8Hk4IMPaYB9mHfkw-25" value="" style="endArrow=classic;html=1;rounded=0;exitX=1.03;exitY=0.525;exitDx=0;exitDy=0;exitPerimeter=0;" edge="1" parent="1" source="bWEQ8Hk4IMPaYB9mHfkw-19" target="bWEQ8Hk4IMPaYB9mHfkw-17">
          <mxGeometry width="50" height="50" relative="1" as="geometry">
            <mxPoint x="240" y="380" as="sourcePoint" />
            <mxPoint x="356" y="240" as="targetPoint" />
          </mxGeometry>
        </mxCell>
        <mxCell id="bWEQ8Hk4IMPaYB9mHfkw-26" value="" style="endArrow=classic;html=1;rounded=0;exitX=0.289;exitY=1.01;exitDx=0;exitDy=0;exitPerimeter=0;entryX=1.02;entryY=0.425;entryDx=0;entryDy=0;entryPerimeter=0;" edge="1" parent="1" source="bWEQ8Hk4IMPaYB9mHfkw-17" target="bWEQ8Hk4IMPaYB9mHfkw-18">
          <mxGeometry width="50" height="50" relative="1" as="geometry">
            <mxPoint x="440" y="540" as="sourcePoint" />
            <mxPoint x="556" y="400" as="targetPoint" />
          </mxGeometry>
        </mxCell>
        <mxCell id="bWEQ8Hk4IMPaYB9mHfkw-27" value="" style="endArrow=classic;html=1;rounded=0;entryX=-0.02;entryY=0.513;entryDx=0;entryDy=0;entryPerimeter=0;" edge="1" parent="1" source="bWEQ8Hk4IMPaYB9mHfkw-1" target="bWEQ8Hk4IMPaYB9mHfkw-18">
          <mxGeometry width="50" height="50" relative="1" as="geometry">
            <mxPoint x="280" y="470" as="sourcePoint" />
            <mxPoint x="396" y="330" as="targetPoint" />
          </mxGeometry>
        </mxCell>
        <mxCell id="bWEQ8Hk4IMPaYB9mHfkw-28" value="" style="endArrow=classic;html=1;rounded=0;exitX=0.97;exitY=0.65;exitDx=0;exitDy=0;exitPerimeter=0;entryX=0;entryY=0.41;entryDx=0;entryDy=0;entryPerimeter=0;" edge="1" parent="1" source="bWEQ8Hk4IMPaYB9mHfkw-18" target="bWEQ8Hk4IMPaYB9mHfkw-20">
          <mxGeometry width="50" height="50" relative="1" as="geometry">
            <mxPoint x="420" y="660" as="sourcePoint" />
            <mxPoint x="520" y="520" as="targetPoint" />
          </mxGeometry>
        </mxCell>
        <mxCell id="bWEQ8Hk4IMPaYB9mHfkw-30" value="" style="endArrow=block;startArrow=block;endFill=1;startFill=1;html=1;rounded=0;exitX=0.967;exitY=0.57;exitDx=0;exitDy=0;exitPerimeter=0;entryX=0;entryY=0.633;entryDx=0;entryDy=0;entryPerimeter=0;fillColor=#f8cecc;strokeColor=#b85450;strokeWidth=2;" edge="1" parent="1" source="bWEQ8Hk4IMPaYB9mHfkw-20" target="bWEQ8Hk4IMPaYB9mHfkw-22">
          <mxGeometry width="160" relative="1" as="geometry">
            <mxPoint x="667" y="700" as="sourcePoint" />
            <mxPoint x="827" y="700" as="targetPoint" />
          </mxGeometry>
        </mxCell>
        <mxCell id="bWEQ8Hk4IMPaYB9mHfkw-33" value="&lt;div&gt;&lt;font style=&quot;font-size: 15px;&quot;&gt;①メニュー画面を&lt;/font&gt;&lt;/div&gt;&lt;div&gt;&lt;font style=&quot;font-size: 15px;&quot;&gt;クリックする&lt;/font&gt;&lt;/div&gt;" style="text;html=1;align=center;verticalAlign=middle;resizable=0;points=[];autosize=1;strokeColor=none;fillColor=none;" vertex="1" parent="1">
          <mxGeometry x="150" y="130" width="140" height="50" as="geometry" />
        </mxCell>
        <mxCell id="bWEQ8Hk4IMPaYB9mHfkw-34" value="&lt;font style=&quot;font-size: 15px;&quot;&gt;②学生情報を&lt;/font&gt;&lt;div&gt;&lt;font style=&quot;font-size: 15px;&quot;&gt;入力する&lt;/font&gt;&lt;/div&gt;" style="text;html=1;align=center;verticalAlign=middle;resizable=0;points=[];autosize=1;strokeColor=none;fillColor=none;" vertex="1" parent="1">
          <mxGeometry x="160" y="440" width="110" height="50" as="geometry" />
        </mxCell>
        <mxCell id="bWEQ8Hk4IMPaYB9mHfkw-35" value="&lt;font style=&quot;font-size: 15px;&quot;&gt;・登録の成功、失敗&lt;/font&gt;&lt;div&gt;&lt;font style=&quot;font-size: 15px;&quot;&gt;・既に存在する学生かもしれない&lt;/font&gt;&lt;/div&gt;" style="text;html=1;align=center;verticalAlign=middle;resizable=0;points=[];autosize=1;strokeColor=none;fillColor=none;" vertex="1" parent="1">
          <mxGeometry x="590" y="585" width="250" height="50" as="geometry" />
        </mxCell>
        <mxCell id="bWEQ8Hk4IMPaYB9mHfkw-36" value="&lt;font style=&quot;font-size: 17px;&quot;&gt;&lt;b style=&quot;&quot;&gt;①境界オブジェクト&lt;/b&gt;&lt;/font&gt;&lt;div&gt;&lt;font style=&quot;font-size: 17px;&quot;&gt;&lt;b&gt;②制御オブジェクト&lt;/b&gt;&lt;/font&gt;&lt;/div&gt;&lt;div&gt;&lt;font style=&quot;font-size: 17px;&quot;&gt;&lt;b style=&quot;&quot;&gt;③実体オブジェクト&lt;/b&gt;&lt;/font&gt;&lt;/div&gt;" style="text;html=1;align=center;verticalAlign=middle;resizable=0;points=[];autosize=1;strokeColor=none;fillColor=none;" vertex="1" parent="1">
          <mxGeometry x="80" y="520" width="180" height="70" as="geometry" />
        </mxCell>
      </root>
    </mxGraphModel>
  </diagram>
</mxfile>
